HIERARCHY
ROOT Hips
{
  OFFSET -33.9132 29.2015 117.021
  CHANNELS 6 Xposition Yposition Zposition Zrotation Xrotation Yrotation
  JOINT LeftUpLeg
  {
    OFFSET 8.64259 1.95398 -2.38835
    CHANNELS 3 Zrotation Xrotation Yrotation
    JOINT LeftLeg
    {
      OFFSET 43.7702 0 0
      CHANNELS 3 Zrotation Xrotation Yrotation
      JOINT LeftFoot
      {
        OFFSET 40.6238 0 0
        CHANNELS 3 Zrotation Xrotation Yrotation
        JOINT LeftToeBase
        {
          OFFSET 12.7242 0 0
          CHANNELS 3 Zrotation Xrotation Yrotation
          End Site
          {
            OFFSET 0 0 0
          }
        }
      }
    }
  }
  JOINT RightUpLeg
  {
    OFFSET -8.2249 1.95398 -2.59336
    CHANNELS 3 Zrotation Xrotation Yrotation
    JOINT RightLeg
    {
      OFFSET 43.5653 0 0
      CHANNELS 3 Zrotation Xrotation Yrotation
      JOINT RightFoot
      {
        OFFSET 40.6238 0 0
        CHANNELS 3 Zrotation Xrotation Yrotation
        JOINT RightToeBase
        {
          OFFSET 12.7242 0 0
          CHANNELS 3 Zrotation Xrotation Yrotation
          End Site
          {
            OFFSET 0 0 0
          }
        }
      }
    }
  }
  JOINT Spine
  {
    OFFSET 0.165834 0.87714 6.61349
    CHANNELS 3 Zrotation Xrotation Yrotation
    JOINT Spine1
    {
      OFFSET 7.38963 1.71661e-005 0
      CHANNELS 3 Zrotation Xrotation Yrotation
      JOINT Spine2
      {
        OFFSET 11.9445 1.14441e-005 0
        CHANNELS 3 Zrotation Xrotation Yrotation
        JOINT Spine3
        {
          OFFSET 14.7254 4.19617e-005 0
          CHANNELS 3 Zrotation Xrotation Yrotation
          JOINT Spine4
          {
            OFFSET 10.9679 0 0
            CHANNELS 3 Zrotation Xrotation Yrotation
            JOINT RightShoulder
            {
              OFFSET 2.46616 -1.6653 3.69651
              CHANNELS 3 Zrotation Xrotation Yrotation
              JOINT RightArm
              {
                OFFSET 13.0012 0 0
                CHANNELS 3 Zrotation Xrotation Yrotation
                JOINT RightForeArm
                {
                  OFFSET 28.7848 1.62311e-005 0
                  CHANNELS 3 Zrotation Xrotation Yrotation
                  JOINT RightHand
                  {
                    OFFSET 26.5688 1.62095e-005 0
                    CHANNELS 3 Zrotation Xrotation Yrotation
                    End Site
                    {
                      OFFSET 0 0 0
                    }
                  }
                }
              }
            }
            JOINT LeftShoulder
            {
              OFFSET 2.38034 -1.29275 -3.7523
              CHANNELS 3 Zrotation Xrotation Yrotation
              JOINT LeftArm
              {
                OFFSET 16.3182 6.07031e-005 0
                CHANNELS 3 Zrotation Xrotation Yrotation
                JOINT LeftForeArm
                {
                  OFFSET 27.0901 0 0
                  CHANNELS 3 Zrotation Xrotation Yrotation
                  JOINT LeftHand
                  {
                    OFFSET 24.5451 1.51738e-005 0
                    CHANNELS 3 Zrotation Xrotation Yrotation
                    End Site
                    {
                      OFFSET 0 0 0
                    }
                  }
                }
              }
            }
            JOINT Neck
            {
              OFFSET 5.0226 -0.0266342 0
              CHANNELS 3 Zrotation Xrotation Yrotation
              JOINT Head
              {
                OFFSET 6.69364 2.86102e-005 0
                CHANNELS 3 Zrotation Xrotation Yrotation
                End Site
                {
                  OFFSET 0 0 0
                }
              }
            }
          }
        }
      }
    }
  }
}
MOTION
Frames:	15
Frame Time:	0.0416667
23.5017 97.0591 -74.481 78.2341 -88.5529 84.7821 -176.702 27.5512 86.4179 -15.5321 10.6241 -1.90471 63.0015 3.47937 0.897738 17.5477 -5.762 0.738814 168.518 -20.3446 81.8247 -34.9874 -27.6198 -5.06197 60.3367 0.252959 -0.527314 25.1399 -0.713613 8.58433 2.69903 7.44698 -90.2622 12.0112 5.24268 -1.09191 0.350208 5.18953 -1.32218 -22.2698 5.32771 0.538778 -2.25711 5.32771 0.538776 92.7937 -18.6752 -105.301 29.0015 -7.09593 34.1675 -24.1315 7.76058 -113.13 -45.4885 18.776 -48.8018 -85.8047 -33.2314 82.1274 -29.0894 24.8816 45.703 43.8009 21.9493 -59.3385 37.5999 -20.8161 -52.8096 19.5188 -15.6218 -12.4591 -9.23881 -11.4883 2.55075 
25.1012 96.5385 -66.26 125.385 -88.4132 134.91 -175.666 28.5576 88.9542 -19.8928 9.23429 -2.39391 61.3331 1.34572 1.37428 12.6099 -9.32347 2.36487 169.703 -20.6492 84.0703 -40.6121 -18.5529 -4.13947 62.4409 -1.51211 0.527445 26.6167 -0.932643 7.29841 2.31806 7.46183 -91.0694 11.9987 4.1045 -2.57929 0.331348 3.98705 -2.75753 -22.2497 4.68957 -1.22457 -2.23703 4.68957 -1.22458 92.0385 -15.1427 -108.941 31.3623 -14.3408 33.1835 -20.6646 5.44466 -110.667 -44.3438 17.3815 -46.8588 -84.92 -41.8033 85.2074 -25.7466 20.3093 44.4115 47.3282 24.9203 -62.0944 40.9074 -20.8971 -48.8882 21.0319 -11.0732 -5.42116 -11.5945 -8.98584 0.137792 
26.6905 95.3815 -58.1003 139.772 -87.8099 150.388 -173.069 30.1901 89.3193 -30.1267 8.42144 -4.23023 58.8332 -0.938209 6.54577 10.0623 -4.02883 -7.98535 170.447 -17.1704 85.0353 -51.2967 -10.2459 -4.14002 65.3967 -4.14327 -2.03264 23.449 0.304691 7.23922 2.3626 7.49965 -90.7681 11.9164 4.33623 -1.99904 0.250813 4.24407 -2.18819 -22.3404 4.73615 -0.60088 -2.32773 4.73614 -0.600878 91.3373 -22.7538 -106.852 34.0961 -14.5834 31.9527 -24.2844 4.32375 -104.589 -39.8896 15.9498 -47.978 -86.0295 -38.3843 82.7408 -26.8002 15.5639 39.4786 48.3596 28.4598 -61.8099 46.0387 -21.9476 -45.4416 20.353 -12.2698 -11.9075 -10.564 -8.3471 3.06761 
28.1726 94.0105 -50.3789 133.524 -87.1709 142.588 -170.021 29.9676 86.1553 -42.9741 9.37897 -5.48489 70.9374 8.261 8.04413 3.4649 -7.71772 -6.83495 171.436 -9.72358 84.6634 -65.522 -2.25976 -4.86559 68.1341 -6.8954 -4.97248 16.2798 2.33578 9.49547 1.91208 7.58847 -90.4851 11.723 3.57537 -1.34366 0.0561661 3.51277 -1.49987 -22.5183 3.81368 -0.205533 -2.50562 3.81368 -0.205533 90.4886 -25.5036 -107.577 37.3263 -13.3015 31.7175 -31.4683 1.29102 -97.4842 -36.5559 13.6044 -45.5708 -86.7927 -42.1383 82.1656 -23.4823 9.92632 33.247 52.3469 31.3879 -63.9032 50.0511 -22.3283 -42.2197 19.4775 -10.2231 -13.4309 -9.34674 -5.95657 3.2174 
29.6661 92.1931 -43.2259 128.915 -85.0939 132.484 -168.471 24.6187 80.3616 -47.5493 9.13485 -6.0693 77.2921 13.5398 6.81572 9.3216 -6.70236 -4.44205 172.749 -1.51359 81.665 -81.143 3.01532 -6.07401 72.4058 -10.2786 -6.56302 14.4884 3.26422 8.87339 1.25415 8.02512 -89.7524 10.8253 2.61171 0.253947 -0.84304 2.62036 0.138668 -23.3968 2.41455 1.02756 -3.38418 2.41455 1.02756 89.6027 -28.6382 -108.093 40.341 -11.7017 32.1376 -32.9067 -0.675801 -89.6872 -37.2277 12.3947 -41.5166 -87.4685 -46.2794 81.8531 -18.568 5.00784 20.4394 52.9369 33.8312 -64.5962 49.7027 -22.3386 -42.5305 21.7179 -7.63119 -12.9895 -8.8936 -3.13978 0.745969 
31.4423 90.5999 -36.4664 122.403 -83.8082 122.22 -167.798 18.9249 76.8325 -48.8628 10.7446 -7.28843 81.8984 18.3265 8.4561 13.1346 -3.71814 -6.38329 177.603 8.10739 80.6412 -94.4817 1.84057 -6.43027 74.8106 -12.6685 -7.55588 15.8903 2.81119 8.61896 0.672267 8.24736 -89.1624 10.3658 1.72283 1.51382 -1.30485 1.78778 1.43653 -23.8379 1.18831 1.96152 -3.82528 1.18831 1.96153 89.2953 -29.6556 -108.292 42.8616 -10.2246 37.5156 -33.3827 -3.14035 -87.6145 -37.2743 12.7903 -42.5509 -87.4311 -46.5373 81.9622 -16.2635 1.79987 5.01816 48.9399 32.8606 -63.1728 47.4828 -22.5096 -45.0433 24.0448 -4.95906 -13.1008 -9.47094 -0.20312 0.304699 
33.1631 89.7272 -29.8126 109.208 -84.1081 109.654 -167.78 14.906 77.5189 -49.4213 10.2973 -7.55241 89.9236 22.8348 4.30743 9.40046 -7.86603 -2.49813 -175.399 19.4243 83.4903 -102.652 0.708842 -6.01237 75.6316 -13.5553 -6.99526 16.1034 2.2767 9.85185 0.288926 8.16707 -89.1257 10.5307 0.977129 1.65126 -1.14089 1.04884 1.60666 -23.6686 0.435774 1.86851 -3.65595 0.435773 1.8685 90.3718 -28.4916 -106.593 46.7544 -12.6961 45.7973 -29.1113 -2.29697 -88.3912 -39.1047 13.1509 -41.7008 -87.4418 -45.6249 81.7758 -14.8293 -2.89946 -9.58029 49.7724 33.659 -63.8973 46.3073 -23.2628 -47.62 23.534 -1.16772 -12.224 -7.98123 3.05681 0.762928 
34.9084 89.415 -22.9045 90.3502 -81.3446 93.8041 -168.342 10.5123 80.6513 -47.6416 11.5857 -6.66403 93.6528 24.8863 2.3459 13.4082 -6.18054 -2.0442 -173.125 30.145 87.9418 -104.138 3.42024 -5.47019 77.2146 -14.4671 -7.00468 17.9277 1.72441 9.44102 -0.430926 8.00198 -89.3976 10.8707 -0.579499 1.25416 -0.800843 -0.523746 1.27844 -23.3328 -0.929597 1.02206 -3.32015 -0.929598 1.02205 91.6285 -27.9026 -104.246 48.4069 -11.6614 54.4626 -29.9492 -1.76946 -89.7602 -37.1962 13.5656 -44.7549 -87.1507 -43.5653 81.8549 -12.7206 -8.64319 -22.2575 46.4245 31.9163 -63.3718 44.1844 -24.0613 -51.5393 23.7405 2.19911 -12.6022 -9.66206 6.35679 2.22005 
37.4262 90.5034 -15.5519 87.6902 -75.8621 93.7352 -169.932 4.57518 83.9695 -44.2621 15.0605 -4.90866 89.8625 23.0126 3.77929 17.9083 -4.31357 -1.42443 -174.141 36.4515 90.6201 -98.8023 7.20211 -5.40296 80.1446 -15.2815 -5.2119 19.0569 1.72362 8.19777 -1.42256 8.0218 -89.7466 10.8407 -2.71531 0.758368 -0.827683 -2.67931 0.877215 -23.3856 -2.81759 -0.0933991 -3.37295 -2.81759 -0.0934008 91.7693 -27.6002 -104.062 46.7845 -6.62172 62.7039 -35.1697 -1.39077 -90.7686 -35.6877 13.8488 -47.2109 -87.043 -38.576 81.0196 -11.0412 -10.9275 -29.071 41.1022 29.6358 -61.3181 41.6127 -24.0003 -54.5259 23.4925 6.10225 -12.6409 -10.1932 9.99993 3.33472 
40.58 92.3811 -7.5253 87.9542 -70.3244 96.2879 -171.32 -2.03781 87.0839 -39.3144 18.5883 -2.64615 79.1405 16.2394 7.14024 30.2456 3.3712 -6.97381 -175.258 38.6237 92.4674 -88.9777 7.23104 -5.42893 80.7542 -15.0138 -5.78292 19.2932 1.68998 8.02127 -2.33689 8.23995 -90.2787 10.3979 -4.78301 -0.134819 -1.26419 -4.7843 0.0763073 -23.8645 -4.52089 -1.56905 -3.85183 -4.5209 -1.56905 92.8331 -25.1786 -102.663 44.4841 -2.48096 68.3966 -39.4838 -1.11234 -91.4367 -34.8298 13.8908 -48.3577 -86.5619 -32.6411 80.5561 -13.1741 -13.7118 -33.113 39.1484 29.8474 -59.9312 46.9488 -24.9696 -50.4859 25.1885 9.4983 -11.2781 -11.1462 12.7325 5.594 
44.1908 94.633 1.07227 87.2273 -66.7048 98.4486 -171.649 -8.55455 91.6294 -31.7091 23.1191 -0.269741 65.864 5.9881 7.59727 41.6366 8.65823 -11.6572 -176.045 38.7819 94.3879 -75.5737 6.78545 -5.15942 79.3252 -12.8927 -4.15695 17.2482 2.85947 7.01618 -2.94002 8.43335 -90.9451 9.97722 -6.28879 -1.35864 -1.67885 -6.34247 -1.07949 -24.3103 -5.58901 -3.19099 -4.29765 -5.589 -3.19099 93.5362 -23.0253 -101.865 40.5473 2.64355 72.2948 -43.6246 -1.26827 -91.4028 -32.7355 14.1049 -51.6827 -86.0703 -28.7661 80.542 -13.0886 -13.4629 -34.7192 34.588 26.7861 -58.6142 41.4492 -25.4857 -57.937 27.9472 12.3194 -8.85819 -13.9096 14.387 8.01201 
47.9357 96.1845 9.86674 83.2488 -65.672 97.5384 -171.141 -12.6707 94.8597 -26.1858 25.4262 1.44357 56.4251 -1.83647 5.09693 28.5154 4.52928 -12.1099 -175.36 38.5357 95.5457 -60.6079 1.06049 -4.91895 77.3184 -11.7048 -3.26006 20.5444 1.68175 6.51093 -3.07497 8.35801 -91.6327 10.0823 -6.87103 -2.66696 -1.57253 -6.98169 -2.36078 -24.1957 -5.75181 -4.61275 -4.18309 -5.75181 -4.61276 94.017 -20.3575 -101.72 37.936 5.95877 77.3331 -44.9102 -1.10004 -91.6536 -32.1554 14.4176 -53.4321 -86.5696 -25.9242 78.8081 -9.89697 -13.2973 -34.3733 30.6795 24.3021 -57.4802 39.7511 -25.3673 -60.0581 28.794 14.6069 -5.69459 -16.4833 15.07 9.55155 
51.5134 96.7694 18.3812 77.2773 -65.2941 92.7383 -172.124 -14.4658 94.6542 -25.0864 21.8439 2.96511 54.7444 -3.43833 3.57625 13.3288 -4.16987 -5.45454 -174.44 38.5582 94.4638 -45.9248 -8.30753 -4.86902 73.7315 -9.80335 -1.8208 23.3494 0.897881 5.3982 -3.0064 8.01992 -91.9777 10.7336 -6.89776 -3.29758 -0.922457 -7.0361 -2.98975 -23.5287 -5.58851 -5.2207 -3.51604 -5.58849 -5.2207 94.8262 -18.039 -100.595 37.8546 6.6829 81.3618 -44.9144 -1.01293 -91.7305 -31.1591 14.5522 -55.2931 -85.1926 -22.0561 80.6035 -11.5164 -10.7651 -37.9473 30.6711 25.0535 -56.937 39.9297 -25.5678 -60.1865 27.6092 15.6245 -3.71686 -17.8292 15.0426 10.5541 
54.9484 96.6029 26.8829 76.5193 -64.0581 91.3985 -172.381 -17.0514 93.7827 -27.7537 15.0228 3.50737 58.934 -0.506008 6.80579 15.5485 -1.28622 -8.91736 -174.299 35.6525 92.75 -32.1257 -14.5526 -4.49795 69.6969 -7.76243 0.162255 26.9859 -0.172734 3.78985 -3.04414 7.91798 -92.0712 10.9313 -7.0182 -3.45719 -0.724384 -7.16346 -3.14387 -23.3301 -5.65559 -5.40899 -3.31742 -5.65558 -5.40898 94.8384 -16.9178 -100.985 38.8582 6.03363 83.7509 -44.8185 -0.509122 -92.3177 -33.4582 15.2221 -53.9499 -84.6461 -20.918 81.5081 -10.0574 -7.78177 -40.1808 29.1106 24.5807 -55.9264 40.0386 -25.0997 -59.18 26.3819 16.1555 -3.01897 -17.5925 15.2183 11.2733 
58.3562 95.8925 35.0073 78.201 -63.4594 90.8877 -172.924 -19.9603 91.5503 -31.3029 8.91025 3.0161 63.043 3.11483 6.78121 15.8653 -2.28683 -6.85991 -174.208 33.0541 90.7398 -24.5853 -18.4017 -4.813 69.4455 -8.18716 0.224833 25.1798 0.719781 3.32469 -3.01194 7.81731 -91.7557 11.1587 -6.81005 -2.83013 -0.49674 -6.92795 -2.52656 -23.1131 -5.64484 -4.74948 -3.1005 -5.64484 -4.7495 94.4294 -18.5737 -101.379 36.7428 7.75325 82.8455 -51.0885 -0.95509 -91.9411 -35.7894 16.2458 -53.6497 -84.5999 -20.9007 81.6036 -8.06505 -2.75581 -39.3857 26.5963 22.8396 -54.7707 38.5997 -24.3295 -59.609 24.8499 15.9723 -3.90462 -17.4605 15.3825 11.0782 
